<svg xmlns="http://www.w3.org/2000/svg" width="20.83" height="27.741" viewBox="0 0 20.83 27.741">
  <g id="grill_icon" transform="translate(-6.5 -0.423)">
    <g id="Grupo_6" data-name="Grupo 6" transform="translate(6.5 0.423)">
      <path id="Trazado_40" data-name="Trazado 40" d="M26.7,15.6H7.077a.577.577,0,0,0,0,1.154h.635a9.284,9.284,0,0,0,2.77,6.059L7.943,32.1a.593.593,0,0,0,.4.692H8.52a.7.7,0,0,0,.577-.4L11.4,23.62a9.049,9.049,0,0,0,4.9,1.789v8.6a.577.577,0,1,0,1.154,0v-8.6a9.049,9.049,0,0,0,4.9-1.789l2.366,8.828a.573.573,0,0,0,.577.4h.173a.593.593,0,0,0,.4-.692l-2.539-9.29a9.284,9.284,0,0,0,2.77-6.059h.635a.545.545,0,0,0,.577-.577A.682.682,0,0,0,26.7,15.6Zm-9.809,8.655a8.022,8.022,0,0,1-8.02-7.5h16.1A8.116,8.116,0,0,1,16.886,24.255Z" transform="translate(-6.5 -6.843)" fill="#057175"/>
      <path id="Trazado_41" data-name="Trazado 41" d="M17.8,6.757a.554.554,0,0,0,.519.4A.212.212,0,0,0,18.5,7.1a.6.6,0,0,0,.346-.75,3.742,3.742,0,0,1,0-2.25A4.224,4.224,0,0,0,18.727.756a.568.568,0,0,0-1.039.462A3.355,3.355,0,0,1,17.746,3.7,5.033,5.033,0,0,0,17.8,6.757Z" transform="translate(-11.168 -0.423)" fill="#057175"/>
      <path id="Trazado_42" data-name="Trazado 42" d="M23.31,6.8a.554.554,0,0,0,.519.4A.212.212,0,0,0,24,7.146a.6.6,0,0,0,.346-.75,3.742,3.742,0,0,1,0-2.25A4.08,4.08,0,0,0,24.291.856a.568.568,0,1,0-1.039.462A3.355,3.355,0,0,1,23.31,3.8,4.463,4.463,0,0,0,23.31,6.8Z" transform="translate(-13.5 -0.466)" fill="#057175"/>
      <path id="Trazado_43" data-name="Trazado 43" d="M28.72,6.757a.554.554,0,0,0,.519.4.212.212,0,0,0,.173-.058.6.6,0,0,0,.346-.75,3.743,3.743,0,0,1,0-2.25A4.224,4.224,0,0,0,29.643.756a.568.568,0,0,0-1.039.462A3.355,3.355,0,0,1,28.663,3.7,5.514,5.514,0,0,0,28.72,6.757Z" transform="translate(-15.795 -0.423)" fill="#057175"/>
    </g>
  </g>
</svg>
