<svg xmlns="http://www.w3.org/2000/svg" width="24.685" height="24.739" viewBox="0 0 24.685 24.739">
  <g id="palm_tree_icon" transform="translate(-0.523 -0.417)">
    <path id="Trazado_49" data-name="Trazado 49" d="M24.745,18c-.669-.051-1.338-.1-2.007-.1a19.943,19.943,0,0,0-8.953,2.007,25.987,25.987,0,0,1,.154-10.6l9.107,4.631a.386.386,0,0,0,.257.051.552.552,0,0,0,.309-.1.581.581,0,0,0,.154-.566,8.422,8.422,0,0,0-3.962-4.939l4.168-.154a.494.494,0,0,0,.463-.36.581.581,0,0,0-.154-.566,8.6,8.6,0,0,0-7.255-2.11l4.682-3.807A.581.581,0,0,0,21.864.82.494.494,0,0,0,21.4.46,8.555,8.555,0,0,0,12.86,5.245,8.555,8.555,0,0,0,4.319.46a.549.549,0,0,0-.463.36.581.581,0,0,0,.154.566L8.692,5.193A8.6,8.6,0,0,0,1.437,7.3a.581.581,0,0,0-.154.566.57.57,0,0,0,.463.36l4.168.154a8.822,8.822,0,0,0-3.962,4.939.581.581,0,0,0,.154.566c.309.154.566.206.72.1L10.75,9.824c-.566,1.646-1.235,4.785-1.029,10.342a8.939,8.939,0,0,0-2.007-.257A7.979,7.979,0,0,0,.563,24.436a.511.511,0,0,0,.257.669.309.309,0,0,0,.206.051.494.494,0,0,0,.463-.309,6.865,6.865,0,0,1,6.226-3.962,6.562,6.562,0,0,1,3.293.875,11.18,11.18,0,0,0-1.955,2.212.506.506,0,0,0,.154.72.869.869,0,0,0,.257.1.458.458,0,0,0,.412-.257c2.161-3.4,7.2-5.608,12.811-5.608.669,0,1.286.051,1.955.1a.519.519,0,0,0,.566-.463A.56.56,0,0,0,24.745,18ZM8.641,8.538a.558.558,0,0,0,.412-.566.508.508,0,0,0-.515-.463L3.341,7.3a7.571,7.571,0,0,1,7.923-.051.457.457,0,0,0,.669-.154.561.561,0,0,0-.1-.72L5.862,1.54a7.428,7.428,0,0,1,6.586,5.3.511.511,0,0,0,.515.36.62.62,0,0,0,.515-.36,7.42,7.42,0,0,1,6.534-5.3L14.043,6.377a.544.544,0,0,0-.1.72.561.561,0,0,0,.669.154,7.571,7.571,0,0,1,7.923.051l-5.2.206a.547.547,0,0,0-.515.463.558.558,0,0,0,.412.566,7.632,7.632,0,0,1,5.042,3.91L13.786,8.126h-.051a.05.05,0,0,1-.051-.051h-.154l-1.749.051h0a.189.189,0,0,0-.154.051h-.051L3.6,12.4A7.414,7.414,0,0,1,8.641,8.538Zm2.11,11.937c-.309-7.563.978-10.6,1.389-11.371h.823a25.022,25.022,0,0,0-.1,11.319l-.926.617C11.522,20.835,11.162,20.68,10.75,20.474Z" transform="translate(0 0)" fill="#057175"/>
  </g>
</svg>
