<svg xmlns="http://www.w3.org/2000/svg" width="18.17" height="26.739" viewBox="0 0 18.17 26.739">
  <g id="coctail_icon" transform="translate(-8.2 -0.459)">
    <path id="Trazado_48" data-name="Trazado 48" d="M26.289.76a.513.513,0,0,0-.724-.223l-4.23,2.171a.419.419,0,0,0-.278.39l-.223,1.113H15.881a3.841,3.841,0,1,0-3.952,3.952,7.152,7.152,0,0,1-.39,1.892,6.653,6.653,0,0,0-.39,2.338,7.284,7.284,0,0,0,6.679,7.291v6.4H15.046a.557.557,0,0,0,0,1.113h6.679a.557.557,0,1,0,0-1.113H18.942v-6.4a7.257,7.257,0,0,0,6.679-7.236A7.331,7.331,0,0,0,25.176,10a7.886,7.886,0,0,1,0-5.065.786.786,0,0,0-.056-.5.506.506,0,0,0-.445-.223H22l.111-.612,4.007-2.059A.6.6,0,0,0,26.289.76ZM19.554,10c-.167.056-.278.167-.445.223a2.391,2.391,0,0,1-1.391.39,2.476,2.476,0,0,1-1.5-.612,3.716,3.716,0,0,0-3.4-.779,8.647,8.647,0,0,0-.111-3.952h7.737L19.554,10ZM9.313,4.322a2.728,2.728,0,0,1,5.455-.111H12.1a.687.687,0,0,0-.445.223.541.541,0,0,0-.056.5,9.418,9.418,0,0,1,.39,2.115A2.757,2.757,0,0,1,9.313,4.322ZM22.56,16.846a5.994,5.994,0,0,1-4.453,1.725,6.184,6.184,0,0,1-5.9-6.178,6.273,6.273,0,0,1,.278-1.781,2.551,2.551,0,0,1,3.006.278,3.535,3.535,0,0,0,2.226.891,3.692,3.692,0,0,0,2.059-.557,3.767,3.767,0,0,1,2.616-.557,5.23,5.23,0,0,1,2,1,4.213,4.213,0,0,1,.056.835A5.992,5.992,0,0,1,22.56,16.846ZM23.9,5.324a9.054,9.054,0,0,0,.111,4.731c-.5-.223-1-.39-1.336-.5a4.333,4.333,0,0,0-1.892,0l.891-4.23Z" transform="translate(0 0)" fill="#057175"/>
  </g>
</svg>
