<?xml version="1.0" encoding="utf-8"?>
<!-- Generator: Adobe Illustrator 24.1.2, SVG Export Plug-In . SVG Version: 6.00 Build 0)  -->
<svg version="1.1" id="Capa_1" xmlns="http://www.w3.org/2000/svg" xmlns:xlink="http://www.w3.org/1999/xlink" x="0px" y="0px"
	 viewBox="0 0 16.8 16.8" style="enable-background:new 0 0 16.8 16.8;" xml:space="preserve">
<style type="text/css">
	.st0{fill:#FFFFFF;}
</style>
<path id="icono_search" class="st0" d="M16.6,15.2l-4.1-4.1c2.3-3,1.7-7.4-1.3-9.7S3.7-0.3,1.4,2.8s-1.7,7.4,1.3,9.7
	c1.2,0.9,2.7,1.4,4.2,1.4c1.5,0,3-0.5,4.2-1.4l4.2,4.1c0.2,0.2,0.4,0.3,0.7,0.3c0.3,0,0.5-0.1,0.7-0.3
	C16.9,16.2,16.9,15.6,16.6,15.2z M6.9,12c-2.8,0-5-2.3-5-5.1c0-2.8,2.3-5,5.1-5c1.3,0,2.6,0.5,3.6,1.5c1,0.9,1.5,2.2,1.5,3.6
	c0,1.3-0.5,2.6-1.5,3.6C9.6,11.5,8.3,12,6.9,12z"/>
</svg>
