<svg id="icono_contrasena" xmlns="http://www.w3.org/2000/svg" width="13.127" height="17.092" viewBox="0 0 13.127 17.092">
  <g id="Grupo_81" data-name="Grupo 81">
    <path id="Trazado_39" data-name="Trazado 39" d="M1.466,7.3h.784V4.314a4.314,4.314,0,1,1,8.628,0V7.3h.784a1.469,1.469,0,0,1,1.466,1.465v6.864a1.47,1.47,0,0,1-1.466,1.465H1.466A1.47,1.47,0,0,1,0,15.628V8.763A1.469,1.469,0,0,1,1.466,7.3Zm2.484,0H9.177V4.314a2.614,2.614,0,1,0-5.228,0V7.3ZM6.563,9.932a1.505,1.505,0,0,1,.723,2.826l.219,1.7H5.622l.219-1.7a1.505,1.505,0,0,1,.723-2.826Z" transform="translate(0)" fill="#149da2" fill-rule="evenodd"/>
  </g>
</svg>
