<svg xmlns="http://www.w3.org/2000/svg" width="11.847" height="15.236" viewBox="0 0 11.847 15.236">
  <path id="icono_eco" d="M51.741,25.522a.661.661,0,0,0-.614-.653l-.079,0a2.79,2.79,0,0,0-.873.192,25.243,25.243,0,0,0-4.581,2.437,18.192,18.192,0,0,0-4.381,3.7,5.869,5.869,0,0,0-.548,6.553l.78,1.161a5.9,5.9,0,0,0,1.262-.54l.051-.026c.013-.008.029-.014.042-.022s.005-.012.011-.016a4.634,4.634,0,0,0,.637-.443,23.714,23.714,0,0,0,3.619-4.65.659.659,0,0,0-1.111-.71A35.547,35.547,0,0,1,43.8,35.571a9.886,9.886,0,0,1-1.2,1.282,1.549,1.549,0,0,1-.69.409l-.052-.072a4.589,4.589,0,0,1,.415-5.209,19,19,0,0,1,4.759-3.833,28.31,28.31,0,0,1,2.628-1.443c.3-.142.545-.239.772-.326.006.673.015,1.352.015,2,.012,3.286-.222,6.121-1.464,7.784a6.535,6.535,0,0,1-4.571,2.624.659.659,0,0,0,.029,1.318,7.783,7.783,0,0,0,5.6-3.163c1.569-2.177,1.707-5.238,1.719-8.563C51.762,27.442,51.747,26.486,51.741,25.522Z" transform="translate(-39.915 -24.866)" fill="#6abe0a"/>
</svg>
