<svg xmlns="http://www.w3.org/2000/svg" width="14.273" height="13.622" viewBox="0 0 14.273 13.622">
  <path id="icono_star1" d="M3.027,25.282a.474.474,0,0,1-.283-.089.569.569,0,0,1-.189-.584L3.208,20.8a.918.918,0,0,0-.225-.691l-2.767-2.7a.569.569,0,0,1-.19-.583.568.568,0,0,1,.5-.36l3.823-.556a.918.918,0,0,0,.588-.427l1.71-3.463a.521.521,0,0,1,.992,0l1.71,3.465a.918.918,0,0,0,.588.427l3.823.556a.521.521,0,0,1,.307.944L11.3,20.11a.918.918,0,0,0-.225.691l.653,3.808a.521.521,0,0,1-.8.584L7.5,23.395a.917.917,0,0,0-.727,0l-3.419,1.8a.717.717,0,0,1-.331.089Z" transform="translate(-0.004 -11.66)" fill="#fff"/>
</svg>
