<?xml version="1.0" encoding="utf-8"?>
<!-- Generator: Adobe Illustrator 24.1.2, SVG Export Plug-In . SVG Version: 6.00 Build 0)  -->
<svg version="1.1" id="Huella" xmlns="http://www.w3.org/2000/svg" xmlns:xlink="http://www.w3.org/1999/xlink" x="0px" y="0px"
	 viewBox="0 0 58 58.9" style="enable-background:new 0 0 58 58.9;" xml:space="preserve">
<style type="text/css">
	.st0{fill:#FFFFFF;}
</style>
<path id="Fill" class="st0" d="M1.3,35.3c-0.4,0-0.7-0.3-0.7-0.6c-1.3-6.4-0.4-13.1,2.5-18.9c0.2-0.4,0.6-0.5,1-0.3c0,0,0,0,0,0
	c0.4,0.2,0.5,0.7,0.3,1C1.7,22,0.8,28.3,2,34.4c0.1,0.4-0.2,0.8-0.6,0.9C1.4,35.3,1.3,35.3,1.3,35.3"/>
<path id="Fill-2" class="st0" d="M6.2,13.6c-0.2,0-0.3-0.1-0.5-0.2c-0.3-0.3-0.4-0.7-0.2-1.1c4.3-6,10.6-10.2,17.9-11.7
	c6.3-1.3,12.9-0.5,18.7,2.5c0.4,0.2,0.5,0.7,0.4,1.1c-0.2,0.4-0.6,0.5-1,0.4c0,0,0,0,0,0C36,1.7,29.8,0.9,23.8,2.2
	C16.9,3.6,10.9,7.5,6.8,13.3C6.7,13.5,6.5,13.6,6.2,13.6"/>
<path id="Fill-3" class="st0" d="M57.2,23.6c-0.4,0-0.7-0.3-0.7-0.6c-1.3-6.9-5.2-12.9-10.9-17c-0.3-0.2-0.4-0.7-0.2-1.1
	c0.2-0.3,0.7-0.4,1-0.2c0,0,0,0,0,0c6,4.3,10.1,10.7,11.5,18c0.1,0.4-0.2,0.8-0.6,0.9C57.3,23.5,57.3,23.6,57.2,23.6"/>
<path id="Fill-4" class="st0" d="M21.6,58c-0.2,0-0.4-0.1-0.5-0.2c-0.3-0.3-0.4-0.7-0.1-1c0,0,0,0,0,0c3.2-3.5,5.6-7.7,7-12.3
	c1.4-4.7,1.6-9.7,0.5-14.5c-0.1-0.4,0.2-0.8,0.6-0.9c0,0,0,0,0,0c0.4-0.1,0.8,0.2,0.9,0.6c1.1,5,0.9,10.2-0.6,15.2
	c-1.4,4.8-3.9,9.2-7.3,12.9C22.1,57.9,21.9,58,21.6,58"/>
<path id="Fill-5" class="st0" d="M18,56.2c-0.2,0-0.4-0.1-0.6-0.2c-0.3-0.3-0.3-0.7-0.1-1c0,0,0,0,0.1-0.1c2.7-2.6,4.9-5.7,6.4-9.1
	c0.2-0.4,0.6-0.6,1.1-0.4c0.4,0.1,0.6,0.5,0.5,0.9c0,0,0,0,0,0.1c-1.5,3.6-3.8,6.9-6.7,9.6C18.4,56.1,18.2,56.2,18,56.2"/>
<path id="Fill-6" class="st0" d="M26.3,58.9c-0.2,0-0.3-0.1-0.5-0.2c-0.3-0.3-0.4-0.7-0.1-1.1c6.1-8.1,8.5-18.5,6.5-28.5l-0.1-0.3
	c-0.2-0.6-0.6-1.2-1.1-1.5C30.5,27,29.8,26.8,29,27c-1.4,0.3-2.3,1.6-2.2,2.9l0.1,0.4c0.8,3.9,0.8,8-0.1,11.9
	c-0.1,0.4-0.5,0.7-0.9,0.6c0,0,0,0,0,0c-0.4-0.1-0.7-0.5-0.6-0.9c0.7-3.5,0.8-7.1,0.2-10.6h0l-0.1-0.7c-0.5-2.3,1-4.6,3.3-5.1
	c1.1-0.2,2.2,0,3.2,0.6c0.9,0.6,1.6,1.6,1.8,2.8l0.1,0.7l0,0c1.8,10.2-0.7,20.7-6.9,29C26.8,58.8,26.5,58.9,26.3,58.9"/>
<path id="Fill-7" class="st0" d="M15.2,54.3c-0.2,0-0.4-0.1-0.5-0.2c-0.3-0.3-0.3-0.8,0-1.1c5.5-5.3,8.2-12.9,7.1-20.5
	c-0.1-0.4,0.2-0.8,0.6-0.8c0.4-0.1,0.8,0.2,0.8,0.6c0,0,0,0,0,0c1.1,8.1-1.8,16.1-7.6,21.8C15.6,54.3,15.4,54.3,15.2,54.3"/>
<path id="Fill-8" class="st0" d="M36.4,35.3c-0.4,0-0.8-0.3-0.8-0.7c0-2.5-0.3-4.9-0.8-7.3L34.8,27c-0.4-1.5-1.3-2.8-2.7-3.6
	c-1.4-0.9-3.1-1.2-4.8-0.9c-2.5,0.5-4.4,2.3-5,4.8c-0.1,0.4-0.5,0.7-0.9,0.6c-0.4-0.1-0.7-0.5-0.6-0.9c0,0,0,0,0,0
	c0.7-3,3.1-5.4,6.2-6c2.1-0.4,4.2,0,5.9,1.1c1.7,1.1,3,2.9,3.4,4.9l0.1,0.6h0c0.4,2.3,0.7,4.6,0.7,7C37.1,35,36.8,35.3,36.4,35.3
	C36.4,35.3,36.4,35.3,36.4,35.3L36.4,35.3z"/>
<path id="Fill-9" class="st0" d="M30.7,58.9c-0.2,0-0.3,0-0.4-0.1c-0.3-0.2-0.4-0.7-0.2-1c0,0,0,0,0,0c3.5-5.1,5.8-11,6.5-17.2
	c0.1-0.4,0.5-0.7,0.9-0.6c0.4,0.1,0.7,0.4,0.7,0.8c-0.8,6.4-3.1,12.5-6.7,17.8C31.1,58.8,30.9,58.9,30.7,58.9"/>
<path id="Fill-10" class="st0" d="M12.5,51.6c-0.2,0-0.4-0.1-0.6-0.3c-0.3-0.3-0.2-0.8,0.1-1.1c0,0,0,0,0,0c2.7-2.3,4.8-5.3,6-8.7
	c1.2-3.2,1.5-6.7,0.9-10.1h0l-0.1-0.7c-0.6-3,0-6,1.7-8.5c1.7-2.5,4.3-4.3,7.3-4.8c1-0.2,2.1-0.3,3.2-0.2c0.4,0,0.7,0.4,0.7,0.8
	c0,0,0,0,0,0c0,0.4-0.4,0.7-0.8,0.7c-0.9-0.1-1.8,0-2.8,0.2c-2.6,0.5-4.9,2-6.3,4.2c-1.3,2-1.9,4.4-1.6,6.8l0.1,0.6
	c0.8,3.9,0.5,7.9-0.8,11.6c-1.3,3.6-3.5,6.8-6.5,9.3C12.9,51.6,12.7,51.6,12.5,51.6"/>
<path id="Fill-11" class="st0" d="M34.5,58c-0.1,0-0.3,0-0.4-0.1c-0.3-0.2-0.5-0.7-0.3-1.1c5-9,6.6-19.5,4.7-29.6l-0.1-0.3
	c-0.6-2.7-2.2-5-4.6-6.4c-0.3-0.2-0.5-0.7-0.3-1c0.2-0.4,0.6-0.5,0.9-0.3c0,0,0,0,0,0c2.8,1.7,4.8,4.5,5.4,7.8l0.1,0.7h0
	c1.8,10.3,0.1,20.9-5,30C35,57.8,34.7,58,34.5,58"/>
<path id="Fill-12" class="st0" d="M9.9,50.7c-0.2,0-0.5-0.1-0.6-0.3C9,50.1,9,49.6,9.3,49.4c0,0,0,0,0,0c2.4-1.9,4.2-4.4,5.4-7.2
	c0.2-0.4,0.6-0.6,1-0.4c0.4,0.1,0.6,0.6,0.5,1c0,0,0,0,0,0c-1.2,3.1-3.3,5.8-5.9,7.8C10.2,50.7,10.1,50.7,9.9,50.7"/>
<path id="Fill-13" class="st0" d="M43.9,44.4c0,0-0.1,0-0.1,0c-0.4-0.1-0.7-0.5-0.6-0.9C44,38,43.9,32.4,42.8,27l0-0.2
	c-1.6-7.3-8.9-11.9-16.2-10.3c-6.9,1.5-11.5,8.1-10.4,15.2l0.1,0.7c0.4,1.9,0.5,3.8,0.3,5.7c0,0.4-0.4,0.7-0.8,0.7s-0.7-0.4-0.7-0.8
	c0,0,0,0,0,0c0.2-1.5,0.1-3-0.1-4.5l-0.2-0.8c-1.7-8.2,3.6-16.2,11.8-17.8c3.9-0.8,8,0,11.3,2.2c3.3,2.2,5.7,5.7,6.4,9.6l0.1,0.4
	l0,0c1.1,5.5,1.2,11.2,0.2,16.7C44.6,44.1,44.3,44.4,43.9,44.4"/>
<path id="Fill-14" class="st0" d="M38.8,57.1c-0.1,0-0.2,0-0.3-0.1c-0.4-0.2-0.5-0.7-0.3-1c1.2-2.7,2.2-5.4,3-8.3
	c0.1-0.4,0.5-0.7,0.9-0.6c0,0,0,0,0,0c0.4,0.1,0.6,0.5,0.5,1c-0.8,2.9-1.8,5.8-3.1,8.5C39.3,56.9,39.1,57.1,38.8,57.1"/>
<path id="Fill-15" class="st0" d="M45,54.3c-0.1,0-0.2,0-0.3-0.1c-0.4-0.2-0.6-0.6-0.4-1c3.2-8.7,4-18,2.2-27.1l0-0.2
	c-0.5-2.4-1.4-4.7-2.8-6.7c-0.2-0.3-0.2-0.8,0.2-1.1c0.3-0.2,0.8-0.2,1,0.1c0,0,0,0,0,0c1.5,2.1,2.5,4.5,3,7l0,0l0.1,0.3
	c1.9,9.4,1.1,19.1-2.3,28.1C45.6,54.1,45.3,54.3,45,54.3"/>
<path id="Fill-16" class="st0" d="M40,16.3c-0.2,0-0.3-0.1-0.5-0.2c-5-4-11.8-4.9-17.6-2.3c-0.4,0.2-0.8,0-1-0.4
	c-0.2-0.4,0-0.8,0.4-1c0,0,0,0,0,0c6.4-2.9,13.8-1.9,19.2,2.5c0.3,0.3,0.4,0.7,0.1,1c0,0,0,0,0,0C40.4,16.2,40.2,16.3,40,16.3"/>
<path id="Fill-17" class="st0" d="M6.2,47.1c-0.2,0-0.4-0.1-0.6-0.3c-0.3-0.3-0.2-0.8,0.1-1.1c3.7-3,5.6-7.8,4.8-12.5l-0.1-0.6
	c-1.4-6.7,1.1-13.6,6.4-18c0.3-0.3,0.8-0.2,1.1,0.1s0.2,0.8-0.1,1.1c-4.7,3.8-7,9.8-6,15.8l0.1,0.7c1.1,5.5-0.9,11.1-5.3,14.6
	C6.5,47,6.4,47.1,6.2,47.1"/>
<path id="Fill-18" class="st0" d="M4.4,44.4c-0.2,0-0.5-0.1-0.6-0.3c-0.3-0.3-0.2-0.8,0.1-1.1c0,0,0,0,0,0c2.7-2.3,4-5.7,3.5-9.2
	l-0.1-0.5C7,32.2,6.9,31,6.8,29.8c0-0.4,0.3-0.8,0.8-0.8c0.4,0,0.8,0.3,0.8,0.8c0,0.9,0.1,1.8,0.3,2.6L8.8,33
	c0.8,4.2-0.7,8.4-3.9,11.2C4.8,44.3,4.6,44.4,4.4,44.4"/>
<path id="Fill-19" class="st0" d="M50.9,29c-0.4,0-0.7-0.3-0.8-0.7c-0.1-0.8-0.3-1.6-0.4-2.4l-0.1-0.4C47.4,14.3,36.5,7,25.2,9.2
	c-8.4,1.7-15,8.4-16.4,16.9c-0.1,0.4-0.5,0.7-0.9,0.6c-0.4-0.1-0.7-0.5-0.6-0.9c0.8-4.4,2.8-8.5,5.9-11.7c8.5-8.9,22.6-9.2,31.5-0.7
	c3.2,3,5.4,7,6.4,11.2h0l0.1,0.6c0.2,0.9,0.4,1.9,0.5,2.8c0.1,0.4-0.2,0.8-0.7,0.9C50.9,29,50.9,29,50.9,29"/>
<path id="Fill-20" class="st0" d="M49.8,49.8c-0.1,0-0.1,0-0.2,0c-0.4-0.1-0.7-0.5-0.6-0.9c0,0,0,0,0-0.1c1.6-5.3,2.2-10.9,1.8-16.4
	c0-0.4,0.3-0.8,0.8-0.8c0,0,0,0,0,0c0.4,0,0.8,0.3,0.9,0.7c0.4,5.7-0.2,11.4-1.9,16.9C50.4,49.6,50.1,49.8,49.8,49.8"/>
<path id="Fill-21" class="st0" d="M2.6,41.7c-0.2,0-0.4-0.1-0.5-0.2c-0.3-0.3-0.3-0.8,0-1.1c1.3-1.5,1.9-3.4,1.6-5.4l-0.1-0.3
	C2.2,28,3.6,21,7.3,15.2C11,9.5,16.8,5.5,23.5,4.1c2.8-0.6,5.6-0.7,8.4-0.3c0.4,0.1,0.7,0.5,0.7,0.9c-0.1,0.4-0.4,0.7-0.9,0.7
	c0,0,0,0,0,0c-2.6-0.4-5.3-0.3-7.9,0.3c-6.3,1.3-11.7,5-15.2,10.4C5.1,21.4,3.9,27.8,5,34l0.1,0.4c0.5,2.5-0.2,5.1-1.9,7
	C3,41.6,2.8,41.7,2.6,41.7"/>
<path id="Fill-22" class="st0" d="M54.9,43.5C54.9,43.5,54.9,43.5,54.9,43.5c-0.5-0.1-0.8-0.4-0.8-0.9c0,0,0,0,0,0
	c0.7-5.9,0.5-11.9-0.6-17.7l-0.1-0.5C51.6,15.7,45.2,8.7,36.8,6c-0.4-0.1-0.6-0.6-0.5-1c0,0,0,0,0,0c0.1-0.4,0.6-0.6,1-0.5
	c8.8,2.7,15.4,9.9,17.6,18.8h0l0.2,0.7c1.3,6.2,1.5,12.5,0.7,18.7C55.7,43.2,55.3,43.5,54.9,43.5"/>
</svg>
