<svg xmlns="http://www.w3.org/2000/svg" width="126" height="126" viewBox="0 0 126 126">
  <g id="Logo_chimba" transform="translate(-125 -80)">
    <g id="Logo">
      <circle id="Elipse_14" data-name="Elipse 14" cx="56.615" cy="56.615" r="56.615" transform="translate(131 86)" fill="#fff"/>
      <g id="Grupo_1618" data-name="Grupo 1618" transform="translate(170.579 136.637)">
        <path id="Trazado_133" data-name="Trazado 133" d="M265,499.265a2.18,2.18,0,1,1-2.186-2.175,2.123,2.123,0,0,1,1.546.636A2.089,2.089,0,0,1,265,499.265ZM260.731,511.9a32.553,32.553,0,0,1,.581-5.067,30.081,30.081,0,0,1,.8-3.861.732.732,0,0,1,.7-.507.688.688,0,0,1,.7.422,33.348,33.348,0,0,1,.8,3.6,29.233,29.233,0,0,1,.617,5.413q0,2.7-2.114,2.7Q260.731,514.6,260.731,511.9Z" transform="translate(-260.634 -497.09)" fill="#149da2"/>
      </g>
      <g id="Grupo_1619" data-name="Grupo 1619" transform="translate(231.036 136.637)">
        <path id="Trazado_134" data-name="Trazado 134" d="M289.259,512.425a2.182,2.182,0,1,1,2.188,2.175,2.111,2.111,0,0,1-1.546-.636A2.083,2.083,0,0,1,289.259,512.425Zm4.264-12.634a32.294,32.294,0,0,1-.581,5.065,29.673,29.673,0,0,1-.8,3.861.728.728,0,0,1-.695.507.686.686,0,0,1-.7-.422,32.7,32.7,0,0,1-.8-3.6,29.088,29.088,0,0,1-.617-5.413q0-2.7,2.114-2.7Q293.522,497.09,293.523,499.791Z" transform="translate(-289.259 -497.09)" fill="#149da2"/>
      </g>
      <path id="Trazado_135" data-name="Trazado 135" d="M258.2,508.468V511.1a11.7,11.7,0,0,1-3.947.781,7.09,7.09,0,0,1-4.925-1.656,5.591,5.591,0,0,1-1.846-4.378,5.725,5.725,0,0,1,1.863-4.391,6.708,6.708,0,0,1,4.746-1.728,11.4,11.4,0,0,1,3.937.767v2.735a6.541,6.541,0,0,0-2.995-.779,3.725,3.725,0,0,0-2.636.917,3.183,3.183,0,0,0-.991,2.454,3.339,3.339,0,0,0,.965,2.5,3.467,3.467,0,0,0,2.537.948A10.187,10.187,0,0,0,258.2,508.468Z" transform="translate(-104.682 -357.514)" fill="#057175"/>
      <path id="Trazado_136" data-name="Trazado 136" d="M267.679,499.98v1.5a5.853,5.853,0,0,1,4.061-1.745,4.286,4.286,0,0,1,4.211,2.486,6.057,6.057,0,0,1,4.606-2.486,4.56,4.56,0,0,1,3.295,1.225,4.232,4.232,0,0,1,1.276,3.2v7.508h-3.675v-6.854a2.938,2.938,0,0,0-.57-1.926,1.956,1.956,0,0,0-1.588-.686,3.581,3.581,0,0,0-2.9,1.981v7.485h-3.662v-6.927a2.659,2.659,0,0,0-.612-1.882,2.117,2.117,0,0,0-1.628-.657,3.773,3.773,0,0,0-2.809,1.622v7.844H264V499.98Z" transform="translate(-86.307 -357.514)" fill="#057175"/>
      <path id="Trazado_137" data-name="Trazado 137" d="M279.118,497.2v6.247a5.657,5.657,0,0,1,3.005-.889,5.41,5.41,0,0,1,4.116,1.683,6.1,6.1,0,0,1,1.59,4.361A6.353,6.353,0,0,1,286.3,513a5.015,5.015,0,0,1-3.916,1.711,5.459,5.459,0,0,1-3.267-1.115v.891h-3.677V497.2Zm0,8.636v5.422a3.335,3.335,0,0,0,2.178.991,2.447,2.447,0,0,0,2.059-.984,4.387,4.387,0,0,0,.75-2.716,3.9,3.9,0,0,0-.786-2.606,2.589,2.589,0,0,0-2.074-.921A3.684,3.684,0,0,0,279.118,505.832Z" transform="translate(-73.589 -360.335)" fill="#057175"/>
      <path id="Trazado_138" data-name="Trazado 138" d="M294.748,508.779v2.042a6.9,6.9,0,0,1-3.44,1.064c-1.153,0-1.84-.439-2.053-1.314a6.783,6.783,0,0,1-3.848,1.314,3.328,3.328,0,0,1-2.315-.862,2.626,2.626,0,0,1-.953-2,3.242,3.242,0,0,1,.982-2.46q.985-.935,5.96-2.412.124-1.955-2.03-1.954a6.012,6.012,0,0,0-4.306,1.954v-2.995a9.435,9.435,0,0,1,5.06-1.421q4.952,0,4.951,3.555v5.329q0,.817.606.817A2.887,2.887,0,0,0,294.748,508.779Zm-5.667.047v-2.832a10.3,10.3,0,0,0-2.53,1.162,1.574,1.574,0,0,0-.688,1.309,1.236,1.236,0,0,0,.346.876,1.117,1.117,0,0,0,.843.365A3.05,3.05,0,0,0,289.081,508.825Z" transform="translate(-66.141 -357.514)" fill="#057175"/>
      <path id="Trazado_139" data-name="Trazado 139" d="M257.419,497.2v7.312h.051a4.571,4.571,0,0,1,3.7-1.954,4.2,4.2,0,0,1,3.075,1.183,4.391,4.391,0,0,1,1.206,3.288v7.458h-3.675V507.8q0-2.55-1.894-2.551-1.248,0-2.463,1.772v7.46h-3.675V497.2Z" transform="translate(-97.717 -360.335)" fill="#057175"/>
      <g id="Grupo_1620" data-name="Grupo 1620" transform="translate(172.499 122.212)">
        <path id="Trazado_140" data-name="Trazado 140" d="M272.078,499.99l.146.19-1.793,1.529a7.34,7.34,0,0,1-1.529-.283,10.067,10.067,0,0,1-1.51-.581,12.365,12.365,0,0,1-1.438-.817,5.921,5.921,0,0,0-1.253-.613,4.928,4.928,0,0,1-2.161-1.576,4.527,4.527,0,0,1-.72-1.265,4.4,4.4,0,0,1-.277-1.536,4.489,4.489,0,0,1,1.5-3.345,5.289,5.289,0,0,1,3.808-1.434,5.184,5.184,0,0,1,3.8,1.43,4.443,4.443,0,0,1,.53,6,4.82,4.82,0,0,1-2.5,1.74,4.972,4.972,0,0,0,2.5.688A2.827,2.827,0,0,0,272.078,499.99Zm-5.255-7.812a2.892,2.892,0,0,0-2.112.781,3.022,3.022,0,0,0,0,4.1,3.26,3.26,0,0,0,4.216.009,3.006,3.006,0,0,0-.011-4.118A2.935,2.935,0,0,0,266.823,492.178Z" transform="translate(-261.543 -490.26)" fill="#057175"/>
        <path id="Trazado_141" data-name="Trazado 141" d="M271.513,497.952v-.889a2.586,2.586,0,0,1-2.011,1.007,2.249,2.249,0,0,1-1.65-.625,2.338,2.338,0,0,1-.631-1.734V491.73h1.958v3.844q0,1.185.982,1.185a1.234,1.234,0,0,0,.946-.431c.26-.287.391-.5.391-.636V491.73h1.973v6.222Z" transform="translate(-255.229 -488.625)" fill="#057175"/>
        <path id="Trazado_142" data-name="Trazado 142" d="M277.181,496.092v1.231a4.585,4.585,0,0,1-2.775.817,3.782,3.782,0,0,1-2.623-.881,2.98,2.98,0,0,1-.982-2.332,3.154,3.154,0,0,1,.923-2.342,3.191,3.191,0,0,1,2.353-.919,3.116,3.116,0,0,1,2.357.967,3.4,3.4,0,0,1,.86,2.587h-4.469a1.785,1.785,0,0,0,.6,1.3,2.172,2.172,0,0,0,1.451.456A3.93,3.93,0,0,0,277.181,496.092Zm-4.317-1.9h2.7q-.158-1.359-1.352-1.358C273.411,492.835,272.96,493.287,272.865,494.193Z" transform="translate(-251.248 -488.695)" fill="#057175"/>
      </g>
      <g id="Elipse_15" data-name="Elipse 15" transform="translate(125 80)" fill="none" stroke="#fff" stroke-width="3">
        <circle cx="63" cy="63" r="63" stroke="none"/>
        <circle cx="63" cy="63" r="61.5" fill="none"/>
      </g>
    </g>
  </g>
</svg>
