<?xml version="1.0" encoding="utf-8"?>
<!-- Generator: Adobe Illustrator 24.1.2, SVG Export Plug-In . SVG Version: 6.00 Build 0)  -->
<svg version="1.1" id="Capa_1" xmlns="http://www.w3.org/2000/svg" xmlns:xlink="http://www.w3.org/1999/xlink" x="0px" y="0px"
	 viewBox="0 0 14.3 13.6" style="enable-background:new 0 0 14.3 13.6;" xml:space="preserve">
<style type="text/css">
	.st0{fill:#FFFFFF;}
</style>
<path id="Trazado_69" class="st0" d="M3,13.6c-0.1,0-0.2,0-0.3-0.1c-0.2-0.1-0.2-0.4-0.2-0.6l0.7-3.8c0-0.3-0.1-0.5-0.2-0.7L0.2,5.7
	C0,5.6,0,5.4,0,5.2C0.1,5,0.3,4.8,0.5,4.8l3.8-0.6C4.6,4.2,4.8,4,4.9,3.8l1.7-3.5C6.7,0.1,7-0.1,7.3,0c0.2,0.1,0.3,0.2,0.3,0.3
	l1.7,3.5C9.5,4,9.7,4.2,9.9,4.3l3.8,0.6c0.3,0,0.5,0.2,0.5,0.5c0,0.2-0.1,0.3-0.2,0.4l-2.8,2.7c-0.2,0.2-0.2,0.4-0.2,0.7l0.7,3.8
	c0.1,0.3-0.1,0.6-0.3,0.7c-0.2,0.1-0.3,0-0.5-0.1l-3.4-1.8c-0.2-0.1-0.5-0.1-0.7,0l-3.4,1.8C3.2,13.6,3.1,13.6,3,13.6L3,13.6z"/>
</svg>
