<svg xmlns="http://www.w3.org/2000/svg" width="29.962" height="27.389" viewBox="0 0 29.962 27.389">
  <g id="icono_subasta" transform="translate(-6.98 -12.7)">
    <g id="Grupo_18" data-name="Grupo 18" transform="translate(6.98 12.7)">
      <path id="Trazado_103" data-name="Trazado 103" d="M35.411,72.032H33.426V71.26a1.357,1.357,0,0,0-1.36-1.36H20.706a1.357,1.357,0,0,0-1.36,1.36v.772H17.36A1.357,1.357,0,0,0,16,73.392v2.316a.565.565,0,0,0,.551.551H36.22a.565.565,0,0,0,.551-.551V73.392A1.334,1.334,0,0,0,35.411,72.032Z" transform="translate(-16 -48.871)" fill="#fff"/>
      <path id="Trazado_104" data-name="Trazado 104" d="M63.654,40.307,53.58,30.234l1.14-1.14L49.463,23.8,44.5,28.763l5.257,5.257,1.14-1.14,10.11,10.11a1.066,1.066,0,0,0,1.544,0l1.1-1.1A1.11,1.11,0,0,0,63.654,40.307Z" transform="translate(-34.022 -19.719)" fill="#fff"/>
      <path id="Trazado_105" data-name="Trazado 105" d="M39.539,46.95a1.066,1.066,0,0,0,1.544,0l.993-.993a1.066,1.066,0,0,0,0-1.544l-5.809-5.882a1.066,1.066,0,0,0-1.544,0l-.993.993a1.066,1.066,0,0,0,0,1.544Z" transform="translate(-27.003 -28.825)" fill="#fff"/>
      <path id="Trazado_106" data-name="Trazado 106" d="M65.039,21.413a1.066,1.066,0,0,0,1.544,0l.993-.993a1.066,1.066,0,0,0,0-1.544l-5.809-5.845a1.066,1.066,0,0,0-1.544,0l-.993.993a1.066,1.066,0,0,0,0,1.544Z" transform="translate(-43.129 -12.7)" fill="#fff"/>
    </g>
  </g>
</svg>
