<?xml version="1.0" encoding="utf-8"?>
<!-- Generator: Adobe Illustrator 24.1.2, SVG Export Plug-In . SVG Version: 6.00 Build 0)  -->
<svg version="1.1" id="Capa_1" xmlns="http://www.w3.org/2000/svg" xmlns:xlink="http://www.w3.org/1999/xlink" x="0px" y="0px"
	 viewBox="0 0 26.4 26.9" style="enable-background:new 0 0 26.4 26.9;" xml:space="preserve">
<style type="text/css">
	.st0{fill:#149DA2;}
</style>
<path id="icono_ofertas" class="st0" d="M10.9,0.4c-0.2-0.2-0.6-0.2-0.8,0L9.2,1.2C9.1,1.3,9,1.5,9,1.6L8.7,3.7L3.8,8.3L1.7,8.4
	c-0.1,0-0.3,0.1-0.4,0.2L0.4,9.4c-0.2,0.2-0.3,0.6,0,0.8l5.7,6.1c0.2,0.2,0.6,0.3,0.8,0l0,0l0.9-0.8C7.9,15.5,8,15.3,8,15.2l0.3-2.1
	l3.1-2.9L21,20.5l-1.3,1.2l-8.4-9c-0.2-0.2-0.6-0.3-0.8,0c-0.2,0.2-0.3,0.6,0,0.8l8.8,9.4c0.2,0.2,0.6,0.3,0.8,0l2.2-2
	c0.2-0.2,0.3-0.6,0-0.8l-10-10.7l0.9-0.9l2.1-0.1c0.1,0,0.3-0.1,0.4-0.2l0.9-0.8c0.2-0.2,0.3-0.6,0-0.8l0,0L10.9,0.4L10.9,0.4z
	 M10.4,1.7l4.9,5.2l-0.3,0.3l-1.8,0.1L9.9,3.8L10.2,2L10.4,1.7z M9.3,4.8l2.9,3.1L7.8,12L4.9,8.9L9.3,4.8z M3.8,9.5L7.1,13l-0.2,1.8
	l-0.3,0.3L1.7,9.9L2,9.6L3.8,9.5z"/>
</svg>
