<svg id="Huella" xmlns="http://www.w3.org/2000/svg" width="57.971" height="58.877" viewBox="0 0 57.971 58.877">
  <path id="Fill" d="M1.3,19.928a.751.751,0,0,1-.731-.611A29.334,29.334,0,0,1,3.118.414a.74.74,0,0,1,1-.331.768.768,0,0,1,.324,1.025A27.785,27.785,0,0,0,2.03,19.016a.761.761,0,0,1-.584.9.744.744,0,0,1-.148.015" transform="translate(0 15.399)" fill="#fff"/>
  <path id="Fill-2" data-name="Fill" d="M.77,13.587a.754.754,0,0,1-.453-.152.8.8,0,0,1-.168-1.1A29.158,29.158,0,0,1,18.022.6,28.4,28.4,0,0,1,36.707,3.073a.8.8,0,0,1,.352,1.057.762.762,0,0,1-1.031.361,26.9,26.9,0,0,0-17.7-2.339A27.625,27.625,0,0,0,1.393,13.263a.763.763,0,0,1-.623.324" transform="translate(5.435 0)" fill="#fff"/>
  <path id="Fill-3" data-name="Fill" d="M11.935,19.022a.749.749,0,0,1-.729-.611A27.356,27.356,0,0,0,.317,1.384.772.772,0,0,1,.135.324.735.735,0,0,1,1.173.138,28.875,28.875,0,0,1,12.666,18.11a.761.761,0,0,1-.583.9.732.732,0,0,1-.148.015" transform="translate(45.29 4.529)" fill="#fff"/>
  <path id="Fill-4" data-name="Fill" d="M.8,28.986a.822.822,0,0,1-.53-.191A.743.743,0,0,1,.2,27.712,31.114,31.114,0,0,0,7.176,15.39,29.539,29.539,0,0,0,7.7.919a.769.769,0,0,1,.628-.9.8.8,0,0,1,.946.6A30.991,30.991,0,0,1,8.724,15.8,32.636,32.636,0,0,1,1.406,28.725a.818.818,0,0,1-.6.261" transform="translate(20.833 28.986)" fill="#fff"/>
  <path id="Fill-5" data-name="Fill" d="M.813,10.87a.846.846,0,0,1-.567-.214A.712.712,0,0,1,.231,9.593,26.954,26.954,0,0,0,6.582.478.835.835,0,0,1,7.635.051a.735.735,0,0,1,.462.973,28.44,28.44,0,0,1-6.7,9.618.843.843,0,0,1-.582.227" transform="translate(17.21 45.29)" fill="#fff"/>
  <path id="Fill-6" data-name="Fill" d="M.954,33.514a.73.73,0,0,1-.46-.164.788.788,0,0,1-.129-1.083A35.8,35.8,0,0,0,6.893,3.81l-.05-.258a2.794,2.794,0,0,0-1.1-1.537A2.643,2.643,0,0,0,3.687,1.6,2.809,2.809,0,0,0,1.5,4.54l.074.377a30.1,30.1,0,0,1-.061,11.945.748.748,0,0,1-.888.593.772.772,0,0,1-.574-.916A28.477,28.477,0,0,0,.244,5.965l-.015,0L.084,5.226A4.365,4.365,0,0,1,3.391.088,4.089,4.089,0,0,1,6.565.73,4.343,4.343,0,0,1,8.369,3.5l.132.673-.017.006a37.371,37.371,0,0,1-6.94,29.038.738.738,0,0,1-.59.3" transform="translate(25.362 25.362)" fill="#fff"/>
  <path id="Fill-7" data-name="Fill" d="M.737,22.645A.726.726,0,0,1,.2,22.406.767.767,0,0,1,.233,21.34,24.071,24.071,0,0,0,7.378.855.751.751,0,0,1,8.008.007a.74.74,0,0,1,.829.646,25.6,25.6,0,0,1-7.6,21.789.725.725,0,0,1-.5.2" transform="translate(14.493 31.703)" fill="#fff"/>
  <path id="Fill-8" data-name="Fill" d="M15.535,14.493a.758.758,0,0,1-.769-.744A36.429,36.429,0,0,0,14,6.452l-.06-.289a6.138,6.138,0,0,0-2.652-3.637A6.492,6.492,0,0,0,6.5,1.616a6.275,6.275,0,0,0-4.98,4.794.769.769,0,0,1-.911.578.747.747,0,0,1-.6-.883A7.789,7.789,0,0,1,6.2.154a8.059,8.059,0,0,1,5.941,1.13,7.612,7.612,0,0,1,3.376,4.871l.124.6-.011,0a37.829,37.829,0,0,1,.676,6.988.758.758,0,0,1-.768.748Z" transform="translate(20.833 20.833)" fill="#fff"/>
  <path id="Fill-9" data-name="Fill" d="M.769,19.022a.772.772,0,0,1-.434-.133.755.755,0,0,1-.2-1.058A37.9,37.9,0,0,0,6.618.675.77.77,0,0,1,8.147.847,39.412,39.412,0,0,1,1.4,18.69a.771.771,0,0,1-.636.332" transform="translate(29.891 39.855)" fill="#fff"/>
  <path id="Fill-10" data-name="Fill" d="M.774,34.42a.777.777,0,0,1-.585-.263.754.754,0,0,1,.078-1.074,20.53,20.53,0,0,0,6.007-8.688,20.085,20.085,0,0,0,.893-10.071H7.161L7.012,13.6a11.138,11.138,0,0,1,1.7-8.527A11.461,11.461,0,0,1,16.035.226,11.722,11.722,0,0,1,19.214.034a.765.765,0,0,1,.711.819.769.769,0,0,1-.831.7,10.149,10.149,0,0,0-2.754.167A9.923,9.923,0,0,0,10,5.915a9.639,9.639,0,0,0-1.577,6.764l.126.616A21.6,21.6,0,0,1,7.733,24.9,22.053,22.053,0,0,1,1.28,34.234a.778.778,0,0,1-.506.186" transform="translate(11.775 17.21)" fill="#fff"/>
  <path id="Fill-11" data-name="Fill" d="M.961,38.949a.692.692,0,0,1-.367-.106.8.8,0,0,1-.26-1.056A44.2,44.2,0,0,0,5,8.177l-.064-.334a9.907,9.907,0,0,0-4.568-6.4A.8.8,0,0,1,.092.4a.706.706,0,0,1,.99-.3A11.47,11.47,0,0,1,6.436,7.87l.125.655-.01,0A45.8,45.8,0,0,1,1.589,38.568a.72.72,0,0,1-.628.381" transform="translate(33.514 19.022)" fill="#fff"/>
  <path id="Fill-12" data-name="Fill" d="M.81,9.058a.82.82,0,0,1-.627-.287A.764.764,0,0,1,.3,7.671,17.5,17.5,0,0,0,5.681.5.819.819,0,0,1,6.73.053a.774.774,0,0,1,.462,1.012A19.075,19.075,0,0,1,1.323,8.881a.824.824,0,0,1-.513.177" transform="translate(9.058 41.667)" fill="#fff"/>
  <path id="Fill-13" data-name="Fill" d="M29.412,29.891a.766.766,0,0,1-.126-.01.775.775,0,0,1-.636-.891,45.963,45.963,0,0,0-.307-16.525l-.042-.209A13.533,13.533,0,0,0,1.7,17.148l.138.687a18.815,18.815,0,0,1,.266,5.7.772.772,0,1,1-1.535-.166A17.208,17.208,0,0,0,.455,18.9L.3,18.146A15.143,15.143,0,0,1,12.1.3,14.917,14.917,0,0,1,23.422,2.535a15.049,15.049,0,0,1,6.435,9.622l.072.362,0,0a47.5,47.5,0,0,1,.246,16.72.773.773,0,0,1-.761.65" transform="translate(14.493 14.493)" fill="#fff"/>
  <path id="Fill-14" data-name="Fill" d="M.75,9.964a.725.725,0,0,1-.328-.079A.792.792,0,0,1,.076,8.844,47.254,47.254,0,0,0,3.054.577.748.748,0,0,1,3.972.026.782.782,0,0,1,4.5.98,48.855,48.855,0,0,1,1.425,9.526a.748.748,0,0,1-.675.438" transform="translate(38.043 47.101)" fill="#fff"/>
  <path id="Fill-15" data-name="Fill" d="M1.5,36.232a.729.729,0,0,1-.267-.051.779.779,0,0,1-.432-1A50.471,50.471,0,0,0,3.026,8.1l-.039-.2A17.222,17.222,0,0,0,.144,1.225.787.787,0,0,1,.308.148.735.735,0,0,1,1.354.317,18.75,18.75,0,0,1,4.39,7.281l0,0,.063.317A52.058,52.058,0,0,1,2.2,35.736a.75.75,0,0,1-.7.5" transform="translate(43.478 18.116)" fill="#fff"/>
  <path id="Fill-16" data-name="Fill" d="M19.171,5.435a.757.757,0,0,1-.479-.17A16.916,16.916,0,0,0,1.072,3.014a.759.759,0,0,1-1-.369.747.747,0,0,1,.372-.993A18.441,18.441,0,0,1,19.65,4.106a.745.745,0,0,1,.106,1.054.757.757,0,0,1-.586.275" transform="translate(20.833 10.87)" fill="#fff"/>
  <path id="Fill-17" data-name="Fill" d="M.761,32.609a.758.758,0,0,1-.593-.285A.766.766,0,0,1,.284,31.25a13.39,13.39,0,0,0,4.84-12.5L5,18.15A18.453,18.453,0,0,1,11.441.171.762.762,0,0,1,12.4,1.357a16.922,16.922,0,0,0-6.025,15.82l.134.668a14.918,14.918,0,0,1-5.272,14.6.755.755,0,0,1-.476.168" transform="translate(5.435 14.493)" fill="#fff"/>
  <path id="Fill-18" data-name="Fill" d="M.785,15.4a.785.785,0,0,1-.6-.275.775.775,0,0,1,.091-1.1,10.04,10.04,0,0,0,3.472-9.21l-.094-.462A22.579,22.579,0,0,1,3.225.811.784.784,0,0,1,4.792.747a21.072,21.072,0,0,0,.275,2.62l.137.676A11.589,11.589,0,0,1,1.291,15.214a.785.785,0,0,1-.507.185" transform="translate(3.623 28.986)" fill="#fff"/>
  <path id="Fill-19" data-name="Fill" d="M43.608,21.739a.777.777,0,0,1-.766-.665c-.119-.8-.255-1.6-.407-2.39l-.078-.374a20.754,20.754,0,0,0-40.817.555A.775.775,0,1,1,.012,18.6,22.434,22.434,0,0,1,5.893,6.913,22.289,22.289,0,0,1,43.757,17.44h.007l.117.562c.187.931.353,1.887.495,2.842a.777.777,0,0,1-.768.894" transform="translate(7.246 7.246)" fill="#fff"/>
  <path id="Fill-20" data-name="Fill" d="M.837,18.116a.927.927,0,0,1-.216-.026.746.746,0,0,1-.592-.918A45.961,45.961,0,0,0,1.837.8.784.784,0,0,1,2.619,0a.809.809,0,0,1,.887.7A47.306,47.306,0,0,1,1.644,17.559a.827.827,0,0,1-.807.557" transform="translate(48.913 31.703)" fill="#fff"/>
  <path id="Fill-21" data-name="Fill" d="M.762,38.043a.752.752,0,0,1-.518-.207.787.787,0,0,1-.041-1.1,6.546,6.546,0,0,0,1.613-5.387l-.056-.265A26.183,26.183,0,0,1,5.513,11.6,25.287,25.287,0,0,1,21.691.517,24.932,24.932,0,0,1,30.137.232a.774.774,0,0,1,.653.874.765.765,0,0,1-.858.666,23.44,23.44,0,0,0-7.94.268A23.773,23.773,0,0,0,6.783,12.455a24.605,24.605,0,0,0-3.61,17.89l.091.432a8.124,8.124,0,0,1-1.943,7.018.754.754,0,0,1-.559.249" transform="translate(1.812 3.623)" fill="#fff"/>
  <path id="Fill-22" data-name="Fill" d="M18.7,38.949a.8.8,0,0,1-.1-.006.777.777,0,0,1-.682-.864,55.768,55.768,0,0,0-.606-17.7l-.106-.5A24.486,24.486,0,0,0,.546,1.513.773.773,0,0,1,.038.538a.788.788,0,0,1,.987-.5A26.061,26.061,0,0,1,18.588,18.852l.011,0,.155.725a57.314,57.314,0,0,1,.725,18.7.782.782,0,0,1-.778.679" transform="translate(36.232 4.529)" fill="#fff"/>
</svg>
