<?xml version="1.0" encoding="utf-8"?>
<!-- Generator: Adobe Illustrator 24.1.2, SVG Export Plug-In . SVG Version: 6.00 Build 0)  -->
<svg version="1.1" id="Capa_1" xmlns="http://www.w3.org/2000/svg" xmlns:xlink="http://www.w3.org/1999/xlink" x="0px" y="0px"
	 viewBox="0 0 25.7 19.3" style="enable-background:new 0 0 25.7 19.3;" xml:space="preserve">
<style type="text/css">
	.st0{fill-rule:evenodd;clip-rule:evenodd;fill:#149DA2;}
</style>
<path id="Menu" class="st0" d="M19.6,11.2h-18C0.7,11.2,0,10.5,0,9.6S0.7,8,1.6,8h18c0.9,0,1.6,0.7,1.6,1.6S20.5,11.2,19.6,11.2
	L19.6,11.2z M24.1,3.2H1.6C0.7,3.2,0,2.5,0,1.6S0.7,0,1.6,0h22.5c0.9,0,1.6,0.7,1.6,1.6S24.9,3.2,24.1,3.2L24.1,3.2L24.1,3.2z
	 M1.6,16h22.5c0.9,0,1.6,0.7,1.6,1.6s-0.7,1.6-1.6,1.6l0,0H1.6c-0.9,0-1.6-0.7-1.6-1.6S0.7,16,1.6,16z"/>
</svg>
