<svg id="icono_unlike" xmlns="http://www.w3.org/2000/svg" width="27.517" height="24.209" viewBox="0 0 27.517 24.209">
  <path id="Trazado_98" data-name="Trazado 98" d="M.609,125.266A8.656,8.656,0,0,0,0,128.492a9.229,9.229,0,0,0,.52,3.1,7.938,7.938,0,0,0,1.5,2.582,6.33,6.33,0,0,0,.559.568l.021.019.676.678c.318.283,9.244,8.262,9.822,8.823a.866.866,0,0,0,1.179.026h0l9.324-8.313c.033-.03.659-.6,1.13-1.048l.015-.014a8.327,8.327,0,0,0,2.772-6.422,8.656,8.656,0,0,0-.609-3.226,8.024,8.024,0,0,0-1.669-2.6,7.651,7.651,0,0,0-5.569-2.366,8.272,8.272,0,0,0-1.534.144,8.725,8.725,0,0,0-1.486.421,8.93,8.93,0,0,0-1.394.678,8.675,8.675,0,0,0-1.256.915.368.368,0,0,1-.484,0,8.787,8.787,0,0,0-2.647-1.593,8.726,8.726,0,0,0-1.486-.421,8.272,8.272,0,0,0-1.534-.144,7.651,7.651,0,0,0-5.569,2.366A8.01,8.01,0,0,0,.609,125.266Zm2.866-1.377a5.94,5.94,0,0,1,4.372-1.86,6.957,6.957,0,0,1,5.249,2.46.864.864,0,0,0,1.321,0,6.97,6.97,0,0,1,5.252-2.461,5.94,5.94,0,0,1,4.372,1.86,6.653,6.653,0,0,1,1.746,4.6,7.825,7.825,0,0,1-.143,1.5,6.992,6.992,0,0,1-.424,1.387,6.285,6.285,0,0,1-.693,1.23,5.884,5.884,0,0,1-.942,1.021c-.513.486-1.135,1.05-1.142,1.057l0,0-8.485,7.566a.367.367,0,0,1-.491,0c-2.329-2.109-8.694-7.8-8.994-8.06l-.017-.017-.678-.68a5.7,5.7,0,0,1-.473-.484,6.836,6.836,0,0,1-1.573-4.522A6.65,6.65,0,0,1,3.475,123.888Z" transform="translate(0 -120.3)" fill="#149da2"/>
</svg>
