<svg xmlns="http://www.w3.org/2000/svg" width="27.701" height="22.007" viewBox="0 0 27.701 22.007">
  <g id="Grupo_1638" data-name="Grupo 1638" transform="translate(-38.52 -434.345)">
    <g id="Grupo_22" data-name="Grupo 22" transform="translate(44 434.345)">
      <path id="Trazado_110" data-name="Trazado 110" d="M116.41,86.093l4.452-3.861a7.324,7.324,0,0,1-.3-1.99,8.067,8.067,0,0,1,.115-1.277l-6.422,5.591V78.965h-2.692V92.728h2.692V87.616l5.716,5.112,1.688-1.917Z" transform="translate(-111.564 -74.703)" fill="#fff"/>
      <path id="Trazado_111" data-name="Trazado 111" d="M125.983,90.229a10.223,10.223,0,0,0-3.017-2.407l1.287-1.72-1.97-1.474-1.5,2a8.076,8.076,0,0,1-2.131-1.609,2.991,2.991,0,0,1-.772-1.944,2.674,2.674,0,0,1,.936-2.019,3.191,3.191,0,0,1,2.249-.867,6.214,6.214,0,0,1,4.222,2.1l1.733-1.789q-2.93-2.827-5.821-2.827a5.676,5.676,0,0,0-4.114,1.576,5.283,5.283,0,0,0-1.628,3.963,5.443,5.443,0,0,0,1.021,3.25,9.051,9.051,0,0,0,2.738,2.262l-1.51,2.013,1.973,1.477,1.717-2.295a9.081,9.081,0,0,1,2.331,1.661,3.118,3.118,0,0,1,.752,2.059,3.211,3.211,0,0,1-1.139,2.443,3.934,3.934,0,0,1-2.755,1.037,5.882,5.882,0,0,1-4.376-2.328l-1.694,1.924a7.469,7.469,0,0,0,2.728,2.173,7.863,7.863,0,0,0,3.457.791,6.191,6.191,0,0,0,4.527-1.789,5.918,5.918,0,0,0,1.809-4.367A5.472,5.472,0,0,0,125.983,90.229Z" transform="translate(-104.819 -77.667)" fill="#fff"/>
    </g>
    <path id="Trazado_154" data-name="Trazado 154" d="M-4.416,5.907H9.472V3.172H-1.272V-16.1H-4.416Z" transform="translate(42.936 450.445)" fill="#fff"/>
  </g>
</svg>
