<?xml version="1.0" encoding="utf-8"?>
<!-- Generator: Adobe Illustrator 24.1.2, SVG Export Plug-In . SVG Version: 6.00 Build 0)  -->
<svg version="1.1" id="Capa_1" xmlns="http://www.w3.org/2000/svg" xmlns:xlink="http://www.w3.org/1999/xlink" x="0px" y="0px"
	 viewBox="0 0 28.5 28.5" style="enable-background:new 0 0 28.5 28.5;" xml:space="preserve">
<style type="text/css">
	.st0{fill:#149DA2;}
	.st1{enable-background:new    ;}
</style>
<g id="Grupo_1636" transform="translate(-40.46 -1663)">
	<g id="icono_help" transform="translate(35 1656.9)">
		<path id="Trazado_96" class="st0" d="M19.7,6.1c-7.9,0-14.3,6.4-14.3,14.3s6.4,14.3,14.3,14.3S34,28.2,34,20.4S27.6,6.1,19.7,6.1
			L19.7,6.1z M19.7,33.1c-7.1,0-12.8-5.7-12.8-12.8S12.7,7.6,19.7,7.6s12.8,5.7,12.8,12.8c0,0,0,0,0,0
			C32.5,27.4,26.8,33.1,19.7,33.1z"/>
	</g>
	<g class="st1">
		<path class="st0" d="M57.3,1674.7c0-1.2-1-1.9-2.6-1.9c-1.5,0-2.5,0.5-3.2,1.4l-1.3-0.9c1-1.3,2.6-2,4.7-2c2.6,0,4.3,1.2,4.3,3.2
			c0,3-3.2,3.2-3.2,5.6h-1.8C54.1,1677.2,57.3,1676.8,57.3,1674.7z M53.9,1683c0-0.6,0.5-1.2,1.2-1.2c0.7,0,1.2,0.5,1.2,1.2
			c0,0.6-0.5,1.2-1.2,1.2C54.3,1684.1,53.9,1683.6,53.9,1683z"/>
	</g>
</g>
</svg>
