<svg xmlns="http://www.w3.org/2000/svg" width="24.798" height="24.739" viewBox="0 0 24.798 24.739">
  <g id="icono_buceo" transform="translate(-0.492 -0.5)">
    <g id="Grupo_7" data-name="Grupo 7" transform="translate(0.492 0.5)">
      <path id="Trazado_44" data-name="Trazado 44" d="M25.287,13.722a6.56,6.56,0,0,0-1.7-4.648,5.853,5.853,0,0,0-1.394-1.136V2.566a2.066,2.066,0,1,0-4.132,0V7.008H13c-2.014,0-4.132.052-5.681,0A6.6,6.6,0,0,0,.806,11.5a6.413,6.413,0,0,0,.826,5.63,6.518,6.518,0,0,0,5.061,2.789A6.433,6.433,0,0,0,11.6,17.905a1.6,1.6,0,0,1,1.24-.516h0a1.8,1.8,0,0,1,1.24.516A6.526,6.526,0,0,0,17.9,19.868a1.086,1.086,0,0,1-.775.723H13.46a1.134,1.134,0,0,0-.981-.465h-1.7a1.257,1.257,0,0,0-1.24,1.24V24a1.257,1.257,0,0,0,1.24,1.24h1.7a1.348,1.348,0,0,0,1.033-.516H17.23A5.407,5.407,0,0,0,22.137,19.3v-.413A6.654,6.654,0,0,0,25.287,13.722Zm-6.2-11.156a1.033,1.033,0,1,1,2.066,0V7.421H21.1a.958.958,0,0,0-.362-.1c-.052,0-.1-.052-.155-.052-.1-.052-.258-.052-.362-.1a.39.39,0,0,1-.207-.052c-.1,0-.258-.052-.362-.052-.155,0-.362-.052-.568-.052ZM12.53,24.258h-1.7a.222.222,0,0,1-.207-.207V21.417a.222.222,0,0,1,.207-.207h1.7a.222.222,0,0,1,.207.207V24.1A.231.231,0,0,1,12.53,24.258Zm8.625-4.8a4.324,4.324,0,0,1-3.925,4.287H13.77V21.675h3.564a2.217,2.217,0,0,0,1.7-1.7h.052c.207,0,.362-.052.568-.052h.1a.973.973,0,0,0,.413-.1c.052,0,.155-.052.207-.052.1-.052.258-.052.362-.1.052,0,.155-.052.207-.052C21,19.506,21.1,19.506,21.155,19.455Zm-.568-.878a.311.311,0,0,1-.207.052c-.1.052-.207.052-.31.1a.655.655,0,0,1-.31.052c-.1,0-.155.052-.258.052s-.258.052-.362.052h-.155a5.384,5.384,0,0,1-4.132-1.7A2.7,2.7,0,0,0,12.84,16.3h0a2.7,2.7,0,0,0-2.014.878,5.46,5.46,0,0,1-4.132,1.7,5.377,5.377,0,0,1-4.235-2.376,5.352,5.352,0,0,1-.723-4.752A5.793,5.793,0,0,1,7.262,8.041c1.6.052,3.719,0,5.733,0,1.963,0,3.977-.052,5.526,0h.465c.207,0,.413.052.62.052h.052c.155.052.362.052.516.1h.1l.465.155c.052,0,.052.052.1.052.155.052.31.155.465.207a5.893,5.893,0,0,1,1.446,1.085A5.453,5.453,0,0,1,24.2,13.618,5.749,5.749,0,0,1,20.587,18.577Z" transform="translate(-0.492 -0.5)" fill="#057175"/>
      <path id="Trazado_45" data-name="Trazado 45" d="M12.475,20.055a.5.5,0,0,0-.723,0L7.155,24.6a.5.5,0,0,0,0,.723.558.558,0,0,0,.362.155.469.469,0,0,0,.362-.155l4.6-4.6A.44.44,0,0,0,12.475,20.055Z" transform="translate(-3.639 -9.88)" fill="#057175"/>
      <path id="Trazado_46" data-name="Trazado 46" d="M14.154,23.855l-3.1,3.1a.5.5,0,0,0,0,.723.558.558,0,0,0,.362.155.469.469,0,0,0,.362-.155l3.1-3.1a.511.511,0,1,0-.723-.723Z" transform="translate(-5.525 -11.718)" fill="#057175"/>
      <path id="Trazado_47" data-name="Trazado 47" d="M6.978,22.977l3.1-3.1a.511.511,0,1,0-.723-.723l-3.1,3.1a.5.5,0,0,0,0,.723.469.469,0,0,0,.362.155A.558.558,0,0,0,6.978,22.977Z" transform="translate(-3.204 -9.445)" fill="#057175"/>
    </g>
  </g>
</svg>
