<?xml version="1.0" encoding="utf-8"?>
<!-- Generator: Adobe Illustrator 24.1.2, SVG Export Plug-In . SVG Version: 6.00 Build 0)  -->
<svg version="1.1" id="Capa_1" xmlns="http://www.w3.org/2000/svg" xmlns:xlink="http://www.w3.org/1999/xlink" x="0px" y="0px"
	 viewBox="0 0 126 126" style="enable-background:new 0 0 126 126;" xml:space="preserve">
<style type="text/css">
	.st0{fill:#FFFFFF;}
	.st1{fill:#149DA2;}
	.st2{fill:#057175;}
	.st3{fill:none;}
</style>
<g id="Logo_chimba" transform="translate(-125 -80)">
	<g id="Logo">
		<circle id="Elipse_14" class="st0" cx="187.6" cy="142.6" r="56.6"/>
		<g id="Grupo_1618" transform="translate(170.579 136.637)">
			<path id="Trazado_133" class="st1" d="M4.4,2.2c0,1.2-1,2.2-2.2,2.2S0,3.4,0,2.2C0,1,1,0,2.2,0c0.6,0,1.1,0.2,1.5,0.6
				C4.1,1,4.4,1.6,4.4,2.2z M0.1,14.8c0.1-1.7,0.3-3.4,0.6-5.1c0.2-1.3,0.4-2.6,0.8-3.9c0.1-0.3,0.4-0.5,0.7-0.5
				c0.3,0,0.6,0.1,0.7,0.4C3.2,7,3.5,8.2,3.7,9.4c0.4,1.8,0.6,3.6,0.6,5.4c0,1.8-0.7,2.7-2.1,2.7C0.8,17.5,0.1,16.6,0.1,14.8z"/>
		</g>
		<g id="Grupo_1619" transform="translate(231.036 136.637)">
			<path id="Trazado_134" class="st1" d="M0,15.3c0-1.2,1-2.2,2.2-2.2s2.2,1,2.2,2.2c0,1.2-1,2.2-2.2,2.2c0,0,0,0,0,0
				c-0.6,0-1.1-0.2-1.5-0.6C0.2,16.5,0,15.9,0,15.3z M4.3,2.7C4.2,4.4,4,6.1,3.7,7.8c-0.2,1.3-0.4,2.6-0.8,3.9
				c-0.1,0.3-0.4,0.5-0.7,0.5c-0.3,0-0.6-0.1-0.7-0.4c-0.3-1.2-0.6-2.4-0.8-3.6C0.3,6.3,0.1,4.5,0.1,2.7C0.1,0.9,0.8,0,2.2,0
				C3.6,0,4.3,0.9,4.3,2.7z"/>
		</g>
		<path id="Trazado_135" class="st2" d="M153.5,151v2.6c-1.3,0.5-2.6,0.8-3.9,0.8c-1.8,0.1-3.6-0.5-4.9-1.7
			c-1.2-1.1-1.9-2.7-1.8-4.4c0-1.7,0.6-3.3,1.9-4.4c1.3-1.2,3-1.8,4.7-1.7c1.3,0,2.7,0.3,3.9,0.8v2.7c-0.9-0.5-1.9-0.8-3-0.8
			c-1,0-1.9,0.3-2.6,0.9c-0.7,0.6-1,1.5-1,2.5c0,0.9,0.3,1.8,1,2.5c0.7,0.6,1.6,1,2.5,0.9C151.4,151.7,152.5,151.4,153.5,151z"/>
		<path id="Trazado_136" class="st2" d="M181.4,142.5v1.5c1.1-1.1,2.5-1.7,4.1-1.7c1.8-0.1,3.5,0.9,4.2,2.5c1.1-1.5,2.8-2.4,4.6-2.5
			c1.2,0,2.4,0.4,3.3,1.2c0.9,0.8,1.3,2,1.3,3.2v7.5h-3.7v-6.9c0-0.7-0.2-1.4-0.6-1.9c-0.4-0.5-1-0.7-1.6-0.7
			c-1.2,0.1-2.3,0.9-2.9,2v7.5h-3.7v-6.9c0-0.7-0.2-1.4-0.6-1.9c-0.4-0.4-1-0.7-1.6-0.7c-1.1,0.1-2.2,0.7-2.8,1.6v7.8h-3.7v-11.7
			H181.4z"/>
		<path id="Trazado_137" class="st2" d="M205.5,136.9v6.2c0.9-0.6,1.9-0.9,3-0.9c1.5-0.1,3,0.6,4.1,1.7c1.1,1.2,1.7,2.8,1.6,4.4
			c0.1,1.6-0.5,3.2-1.5,4.4c-1,1.1-2.4,1.8-3.9,1.7c-1.2,0-2.3-0.4-3.3-1.1v0.9h-3.7v-17.3H205.5z M205.5,145.5v5.4
			c0.6,0.6,1.4,0.9,2.2,1c0.8,0,1.6-0.3,2.1-1c0.5-0.8,0.8-1.8,0.8-2.7c0.1-0.9-0.2-1.9-0.8-2.6c-0.5-0.6-1.3-0.9-2.1-0.9
			C206.9,144.7,206.1,145,205.5,145.5L205.5,145.5z"/>
		<path id="Trazado_138" class="st2" d="M228.6,151.3v2c-1,0.7-2.2,1-3.4,1.1c-1.2,0-1.8-0.4-2.1-1.3c-1.1,0.8-2.5,1.3-3.8,1.3
			c-0.9,0-1.7-0.3-2.3-0.9c-0.6-0.5-0.9-1.2-1-2c0-0.9,0.3-1.8,1-2.5c0.7-0.6,2.6-1.4,6-2.4c0.1-1.3-0.6-2-2-2c-1.6,0-3.2,0.7-4.3,2
			v-3c1.5-0.9,3.3-1.4,5.1-1.4c3.3,0,5,1.2,5,3.6v5.3c0,0.5,0.2,0.8,0.6,0.8C227.7,151.8,228.2,151.6,228.6,151.3z M222.9,151.3
			v-2.8c-0.9,0.3-1.7,0.7-2.5,1.2c-0.4,0.3-0.7,0.8-0.7,1.3c0,0.3,0.1,0.6,0.3,0.9c0.2,0.2,0.5,0.4,0.8,0.4
			C221.7,152.2,222.4,151.8,222.9,151.3L222.9,151.3z"/>
		<path id="Trazado_139" class="st2" d="M159.7,136.9v7.3h0.1c0.8-1.2,2.2-1.9,3.7-2c1.1,0,2.3,0.4,3.1,1.2c0.8,0.9,1.3,2.1,1.2,3.3
			v7.5h-3.7v-6.7c0-1.7-0.6-2.6-1.9-2.6c-0.8,0-1.7,0.6-2.5,1.8v7.5H156v-17.3H159.7z"/>
		<g id="Grupo_1620" transform="translate(172.499 122.212)">
			<path id="Trazado_140" class="st2" d="M10.5,9.7l0.1,0.2l-1.8,1.5c-0.5,0-1-0.1-1.5-0.3c-0.5-0.2-1-0.3-1.5-0.6
				c-0.5-0.2-1-0.5-1.4-0.8C4,9.5,3.6,9.3,3.2,9.2C2.3,8.8,1.6,8.3,1,7.6C0.7,7.2,0.4,6.8,0.3,6.3C0.1,5.8,0,5.3,0,4.8
				c0-1.3,0.5-2.5,1.5-3.3c1-1,2.4-1.5,3.8-1.4c1.4-0.1,2.8,0.5,3.8,1.4c1.7,1.6,1.9,4.2,0.5,6C9,8.3,8.1,8.9,7.1,9.2
				c0.8,0.4,1.6,0.7,2.5,0.7C9.9,9.9,10.2,9.8,10.5,9.7z M5.3,1.9c-0.8,0-1.5,0.2-2.1,0.8c-1.1,1.2-1.1,2.9,0,4.1c1.2,1,3,1,4.2,0
				c1.1-1.2,1.1-3,0-4.1C6.8,2.2,6.1,1.9,5.3,1.9L5.3,1.9z"/>
			<path id="Trazado_141" class="st2" d="M16.3,9.3V8.4c-0.5,0.6-1.2,1-2,1c-0.6,0-1.2-0.2-1.6-0.6C12.2,8.4,12,7.7,12,7.1v-4h2v3.8
				c0,0.8,0.3,1.2,1,1.2c0.4,0,0.7-0.2,0.9-0.4c0.3-0.3,0.4-0.5,0.4-0.6v-4h2v6.2L16.3,9.3z"/>
			<path id="Trazado_142" class="st2" d="M25.9,7.4v1.2c-0.8,0.6-1.8,0.9-2.8,0.8c-1,0-1.9-0.3-2.6-0.9c-0.7-0.6-1-1.4-1-2.3
				c0-0.9,0.3-1.7,0.9-2.3C21.1,3.3,22,2.9,22.8,3c0.9,0,1.7,0.3,2.4,1c0.6,0.7,0.9,1.6,0.9,2.6h-4.5c0,0.5,0.2,1,0.6,1.3
				c0.4,0.3,0.9,0.5,1.5,0.5C24.5,8.2,25.3,7.9,25.9,7.4z M21.6,5.5h2.7c-0.1-0.9-0.6-1.4-1.4-1.4C22.2,4.1,21.7,4.6,21.6,5.5
				L21.6,5.5z"/>
		</g>
		<g id="Elipse_15" transform="translate(125 80)">
			<circle class="st3" cx="63" cy="63" r="63"/>
			<path class="st0" d="M63,126C28.3,126,0,97.7,0,63S28.3,0,63,0s63,28.3,63,63S97.7,126,63,126z M63,3C29.9,3,3,29.9,3,63
				s26.9,60,60,60s60-26.9,60-60S96.1,3,63,3z"/>
		</g>
	</g>
</g>
</svg>
