<svg xmlns="http://www.w3.org/2000/svg" width="27.802" height="16.739" viewBox="0 0 27.802 16.739"><defs><style>.a{fill:#057175;}</style></defs><g transform="translate(-0.5 -10.1)"><path class="a" d="M28.128,25.8a28.9,28.9,0,0,1-7.761-15.175.616.616,0,0,0-.579-.521H9.014a.616.616,0,0,0-.579.521A29.173,29.173,0,0,1,.674,25.855a.56.56,0,0,0,0,.811.56.56,0,0,0,.811,0A25.96,25.96,0,0,0,3.57,24.349V26.26a.547.547,0,0,0,.579.579h20.5a.547.547,0,0,0,.579-.579V24.349c.637.753,1.332,1.564,2.085,2.317a.56.56,0,0,0,.811,0A.629.629,0,0,0,28.128,25.8Zm-23.4-3.07a30.1,30.1,0,0,0,4-8.225V25.623h-4Zm5.155,2.9V15.139a33.241,33.241,0,0,0,3.939,7.646v2.838Zm14.191,0H14.98V23.19h9.094Zm-9.383-3.591A33.147,33.147,0,0,1,9.883,11.258h9.383a30.06,30.06,0,0,0,4.286,10.773Z"/></g></svg>